<svg enable-background="new 0 0 32 32" viewBox="0 0 32 32" xmlns="http://www.w3.org/2000/svg"><path d="m0 0h32v32h-32z" fill="none"/><path d="m21.36992 6.41501c-2.07779-.0995-4.15314.24128-6.09 1v.87c.34312-.02834.68824-.02164 1.03.02.24941.04027.46278.20124.57.43l.95 2.03c.12575.03087.24017.09675.33.19.3143.31756.82652.32021 1.14408.00592.00198-.00196.00395-.00393.00592-.00592.01 0 .01-.01.02-.01.30425-.29701.79125-.29254 1.09.01.28943.30887.28057.79196-.02 1.09-.43625.43435-1.02445.68182-1.64.69l1.24 2.65c.04.09.09.18.13.28 1.53593-.45052 3.19532-.02896 4.33 1.1.29327.30872.28076.79673-.02796 1.09-.29758.28269-.76446.28269-1.06204 0-.72109-.72323-1.77751-.99882-2.76-.72.35183 1.45403.33809 2.97257-.04 4.42.27.08.53.15.8.21 3.54896-.71667 6.09822-3.83941 6.09-7.46v-6.88c-1.93576-.76347-4.01142-1.10772-6.09-1.01zm4.63 5.63c-.91242.91679-2.39529.92034-3.31208.00792-.00265-.00263-.00529-.00527-.00792-.00792l-.02-.02c-.29275-.30156-.28561-.78335.01595-1.0761.00134-.00131.0027-.00261.00405-.0039.14001-.14145.33098-.22071.53-.22.20653.00093.40429.08363.55.23.3143.31756.82652.32021 1.14408.00592.00198-.00196.00395-.00393.00592-.00592.01 0 .01-.01.02-.01.30425-.29701.79125-.29254 1.09.01.28943.30887.28057.79196-.02 1.09z" fill="#610ac3" opacity=".2"/><g fill="#6c429c"><path d="m28.66592 6.32601c-.086-.059-2.175-1.451-7.292-1.451s-7.206 1.392-7.293 1.451c-.20834.1434-.33285.38008-.333.633v1.526c-1.61135.34295-3.17512.88021-4.657 1.6-4.632 2.174-5.932 4.321-5.985 4.412-.12835.21828-.1407.48583-.033.715l3.12 6.651c1.87111 3.99695 6.33261 6.08417 10.6 4.959h.007c.08759-.02382.17023-.06311.244-.116 1.32074-.94176 2.36608-2.21908 3.028-3.7.38168.12543.77118.22565 1.166.3.023 0 .046.008.069.01h.069c.04665.00019.0932-.00417.139-.013 4.33968-.799 7.4889-4.58438 7.485-8.997v-7.347c-.00003-.25319-.12502-.49006-.334-.633zm-21.083 14.884-2.925-6.235c1.43055-1.51064 3.16313-2.70317 5.085-3.5 1.84147-.96898 3.86647-1.53903 5.943-1.673l2.925 6.234c1.53869 3.27539.55623 7.18137-2.349 9.339-3.51464.85309-7.14394-.88671-8.68-4.161zm19.881-6.9c.00215 3.61699-2.54512 6.73436-6.09 7.453-.27021-.05451-.53726-.12361-.8-.207.37513-1.4493.38784-2.96863.037-4.424.98417-.2748 2.04006.00188 2.763.724.31936.27914.80453.24653 1.08367-.07283.25212-.28844.25311-.71857.00233-1.00817-1.1336-1.13377-2.79692-1.55593-4.334-1.1-.041-.1-.083-.19-.127-.285l-1.244-2.654c.61782-.00237 1.20945-.24981 1.645-.688.31652-.28235.34423-.76783.06188-1.08435s-.76783-.34423-1.08435-.06188c-.0165.01472-.03236.03014-.04753.04623l-.016.016c-.31743.31756-.83219.31767-1.14976.00024-.00008-.00008-.00016-.00016-.00024-.00024-.09127-.09123-.20409-.15796-.328-.194l-.956-2.036c-.10746-.22934-.32108-.39096-.571-.432-.34039-.04199-.68418-.04902-1.026-.021v-.862c1.93694-.76031 4.01239-1.10377 6.091-1.008 2.07842-.095 4.15352.24915 6.09 1.01z"/><path d="m24.33892 12.73101c.62332.00166 1.22141-.24607 1.661-.688.31652-.28235.34423-.76783.06188-1.08435s-.76783-.34423-1.08435-.06188c-.0165.01472-.03236.03014-.04753.04623l-.016.016c-.31743.31756-.83219.31767-1.14976.00024-.00008-.00008-.00016-.00016-.00024-.00024-.3086-.29099-.79466-.27672-1.08565.03188-.27338.28992-.27961.74076-.01435 1.03812l.016.016c.43942.4407 1.03665.68766 1.659.686z"/><path d="m11.48392 17.48601c.14439-.39824-.0614-.83812-.45963-.98251-.00046-.00016-.00091-.00033-.00137-.00049-1.21995-.4413-2.56666.18993-3.00796 1.40989-.00001.00004-.00003.00007-.00004.00011-.14738.39773.05557.83962.45329.987.38743.14356.819-.04511.97671-.427l.014-.038c.15316-.4218.61881-.64009 1.041-.488.39806.14488.83819-.06037.98307-.45843.00031-.00085.00062-.00171.00093-.00257z"/><path d="m13.54891 16.51801c.39846.14408.83832-.06176.983-.46.15275-.42274.61923-.64165 1.042-.489.39205.16189.8411-.02469 1.00299-.41673.16189-.39205-.02469-.8411-.41673-1.00299-.00869-.00359-.01744-.00701-.02625-.01028l-.038-.014c-1.22017-.43883-2.5654.19219-3.008 1.411-.1439.39841.06243.83804.46084.98194.00005.00002.0001.00004.00015.00006z"/><path d="m16.93192 19.52801c.14739-.39772-.05555-.83962-.45328-.98701-.38743-.14357-.81902.04511-.97672.42701l-.014.038c-.53328 1.4689-2.15465 2.22927-3.625 1.7-.40259-.13352-.83719.08461-.97071.4872-.12851.3875.06861.80783.44871.9568 2.26695.82008 4.76948-.35283 5.58956-2.61978.00015-.00041.00029-.00081.00044-.00122z"/></g></svg>