<svg enable-background="new 0 0 32 32" viewBox="0 0 32 32" xmlns="http://www.w3.org/2000/svg"><path d="m0 0h32v32h-32z" fill="none"/><path d="m26 7v16.1c0 1.1-.8 2.1-1.9 2.5v.7c-.1.8-.8 1.4-1.5 1.3h-1.7c-.7-.1-1.2-.7-1.2-1.4v-.3h-7.6v.7c-.1.6-.6 1.1-1.3 1.1h-1.6c-.8 0-1.4-.7-1.4-1.5v-.6c-1-.4-1.7-1.3-1.9-2.4v-16.2c0-.1 0-.2 0-.2.1-.7.4-1.4 1-1.8.6-.5 1.3-.7 2-.6h14.3c1.5-.1 2.8 1.1 2.8 2.6z" fill="#6c429c"/><path d="m24.5 6.9v16.1c0 .7-.6 1.1-1.3 1.2h-14.3c-.3 0-.6-.1-.9-.2-.2-.2-.3-.4-.4-.7v-16.4c0-.7.6-1.1 1.3-1.2h14.3c.7 0 1.3.5 1.3 1.2z" fill="#fff"/><g fill="#6c429c"><path d="m4 8.9v4.8c0 .4.4.6.9.6s.9-.3.9-.6v-6.9c-1 .3-1.8 1.1-1.8 2.1z"/><path d="m26.3 6.8v6.8c0 .4.4.6.9.6s.9-.3.9-.6v-4.7c-.2-1-.9-1.8-1.8-2.1z"/><path d="m10 18.4c.9 0 1.6.8 1.6 1.7s-.8 1.6-1.7 1.6-1.6-.8-1.6-1.6c0-1 .8-1.7 1.7-1.7z"/><ellipse cx="21.8" cy="20.1" rx="1.7" ry="1.6"/></g><path d="m23.5 7.8v7.3c0 .4-.3.8-.7.8h-13.7c-.4 0-.7-.4-.7-.8v-7.3c0-.4.3-.8.7-.8h13.7c.4 0 .8.4.7.8z" fill="#610ac3" opacity=".2"/><path d="m12.1 18.6h7.5v1.1h-7.5z" fill="#6c429c"/><path d="m12.1 20.7h7.5v1.1h-7.5z" fill="#6c429c"/></svg>