<svg enable-background="new 0 0 32 32" viewBox="0 0 32 32" xmlns="http://www.w3.org/2000/svg"><path d="m0 0h32v32h-32z" fill="none"/><path d="m26.5 6.5c-1.5-.5-2.9-.8-4.4-.7-1.5 0-3 .2-4.4.8-.5.2-.9.4-1.4.8-.4-.3-.9-.6-1.3-.8-1.5-.6-3-.9-4.5-.8-1.5-.1-3 .2-4.4.7-1.5.6-2.3 1.5-2.3 2.6v11.2c0 1.1.8 2 2.4 2.6 1 .4 1.9.6 3 .7-.4-.6-.8-1.2-1.1-1.9-.4-.1-.8-.2-1.2-.4-.8-.3-1.3-.8-1.3-1v-.8c.2.1.5.2.7.3.4.2.9.3 1.3.4-.1-.5-.2-1-.2-1.6-.2 0-.4-.1-.6-.2-.9-.3-1.3-.8-1.3-1v-.8c.2.2.5.4.7.5.4.1.8.2 1.1.3 0-.5.1-.9.2-1.4-.3-.1-.6-.2-.8-.3-.9-.3-1.3-.8-1.3-1v-.8c.3.1.6.3.8.4.6.2 1.2.4 1.8.5.2-.5.4-.9.7-1.3-.7-.1-1.3-.3-2-.5-.9-.3-1.3-.8-1.3-1v-.8c.2.1.5.2.7.3 1.2.4 2.3.7 3.5.7.5-.6 1.1-1 1.7-1.4-.3 0-.6 0-.9 0-1.3 0-2.6-.2-3.8-.6-.9-.3-1.3-.8-1.3-1s.4-.6 1.3-1c1.4-.5 2.6-.7 3.9-.7s2.6.2 3.8.6c.9.3 1.3.8 1.3 1 0 .1 0 .1-.1.2h.8.8c-.1-.1-.1-.1-.1-.2 0-.2.4-.6 1.3-1 1.2-.4 2.5-.7 3.8-.6 1.3 0 2.6.2 3.8.6.9.3 1.3.8 1.3 1s-.4.6-1.3 1c-1.2.5-2.5.7-3.8.6-.3 0-.6 0-.9 0 .6.4 1.2.9 1.7 1.4 1.2-.1 2.4-.3 3.5-.7.2-.1.5-.2.7-.3v.8c0 .2-.4.6-1.2 1-.6.2-1.3.4-2 .5.3.4.5.9.7 1.3.6-.1 1.2-.3 1.8-.5.2-.1.5-.2.7-.3v.8c0 .2-.4.7-1.2 1-.3.1-.6.2-.8.3.1.5.2.9.2 1.4.4-.1.8-.2 1.1-.4.2-.1.5-.2.7-.4v.8c0 .2-.4.7-1.3 1-.2.1-.4.1-.6.2 0 .5-.1 1.1-.2 1.6.4-.1.9-.2 1.3-.4.2-.1.5-.2.7-.4v.8c0 .2-.4.7-1.3 1-.4.2-.8.3-1.2.4-.3.7-.7 1.4-1.1 1.9 1-.1 2-.3 3-.7 1.5-.6 2.4-1.5 2.4-2.6v-11.1c0-1.1-.8-2-2.3-2.6z" fill="#6c429c"/><path d="m16.3 27.3c-5 0-9-4-9-9s4-9 9-9 9 4 9 9-4 9-9 9zm0-16.2c-4 0-7.2 3.2-7.2 7.2s3.2 7.2 7.2 7.2 7.2-3.2 7.2-7.2-3.2-7.2-7.2-7.2z" fill="#6c429c"/><circle cx="16.3" cy="18.3" fill="#610ac3" opacity=".2" r="6"/><path d="m20.4 16h-3.7c.1.2.2.4.2.7.7-.3 1.6-.1 2.1.5.4.4.5.9.5 1.4s-.2 1.1-.5 1.5-.8.7-1.4.7c-.2 0-.4 0-.6-.1h-.1v-1.1l.1.1c.2.1.3.1.5.1.3 0 .5-.1.7-.3s.3-.5.3-.8-.1-.5-.3-.7-.4-.3-.7-.3c-.2 0-.5.1-.7.2-.2.8-.8 1.5-1.6 1.8l2.5 2h-1.6l-3.7-3 .7-.7.7.6c.2.1.4.2.7.2.7 0 1.3-.6 1.3-1.3 0-.5-.2-1-.7-1.2h-3.1v-.8h8.2z" fill="#6c429c"/></svg>