<svg enable-background="new 0 0 32 32" viewBox="0 0 32 32" xmlns="http://www.w3.org/2000/svg"><path d="m0 0h32v32h-32z" fill="none"/><path d="m11.5 15.9c.1 0 .2 0 .3.1h-.7c.2 0 .3-.1.4-.1z" fill="#6c429c"/><path d="m22.3 10c0 .2-.1.4-.3.5-.1.1-.4.2-.6.2l-7.4-.1c-.3-.1-.7 0-.9.3-.1.1-2.3 3.1-3.8 5.1h-2c1.3-1.7 4.5-6.1 4.5-6.1l.1-.1c.6-.6 1.4-.9 2.2-.8l7.4.2c.5 0 .9.4.8.8z" fill="#6c429c"/><path d="m19.9 18h-4.1c-.8 0-.3-.5-.8-1.3 0-.6-.2-1.2.5-1.3h-9.5c-.8 0-1.4.5-1.4 1.3v5.8c0 .8.7 1.4 1.4 1.3h14.1c.8 0 1.4-.5 1.4-1.3v-5.1c-.5.4-1 .6-1.6.6z" fill="#610ac3" opacity=".2"/><path d="m13 24.4c-2.6 0-4.7-2.1-4.8-4.7 0-2.5 1.9-4.6 4.4-4.7h.4c.3 0 .5.2.5.5s-.2.6-.5.6c-2 0-3.7 1.6-3.7 3.7s1.6 3.7 3.7 3.7 3.7-1.6 3.7-3.7c0-.3.2-.5.5-.5.3 0 .5.2.5.5 0 2.5-2.1 4.6-4.7 4.6z" fill="#5c2d91"/><path d="m14.3 24.2c-2.5.8-5.2-.5-6-3s.5-5.2 3-6l.3-.1c.3-.1.6.1.7.4s-.1.6-.4.7c-1.9.6-3 2.6-2.5 4.6s2.6 3 4.6 2.5c1.9-.6 3-2.6 2.5-4.6-.1-.3 0-.6.2-.7.3-.1.6 0 .7.2v.1c.9 2.4-.5 5.1-3.1 5.9.1 0 .1 0 0 0z" fill="#6c429c"/><path d="m25.5 14.2c-.3-.3-.8-.3-1.1 0l-2.6 2.6c-.1 0-.2.1-.3.1-.3.2-.7.3-1.1.4h-3.6c-.2-.1-.3-.3-.3-.5 0-.3.2-.5.5-.5h4c.4 0 .8-.4.8-.8s-.3-.8-.8-.8h-4c-.2 0-.5 0-.7.1-.1-.1-.3-.1-.5-.1h-9.7c-1.2-.1-2.3.9-2.4 2.1v5.9c.1 1.2 1.1 2.1 2.2 2.1h14.6c1.2.1 2.3-.9 2.4-2.1v-4.7l2.6-2.6c.3-.4.3-.9 0-1.2zm-4.3 8.3c0 .3-.3.6-.6.5h-14.5c-.3 0-.6-.2-.6-.5v-5.8c0-.3.2-.5.5-.5h7.9c-.1.2-.1.4-.1.5.1 1.2 1.2 2.2 2.4 2.1h.4.4 3.7.5z" fill="#6c429c"/><path d="m23 8.3h3v5.9h-3z" fill="#610ac3" opacity=".2" transform="matrix(.7071 -.7071 .7071 .7071 -.811 20.6273)"/><path d="m28 11.6-4-4.1c-.3-.3-.8-.3-1.1 0l-2.1 2.2c-.3.3-.3.8 0 1.1l4 4.1c.1.1.3.2.5.2.2 0 .4-.1.5-.2l2.1-2.2c.4-.3.4-.8.1-1.1zm-1.6.6-1.1 1.1-2.9-3 1-1z" fill="#6c429c"/></svg>