<svg viewBox="0 0 32 32" xmlns="http://www.w3.org/2000/svg"><path d="m0 0h32v32h-32z" fill="none"/><path d="m14.3 15.65 4.61 2.67-4.61 2.68z" fill="#610ac3" opacity=".2"/><path d="m13.67 22.61a.79.79 0 0 1 -.79-.79v-6.82a.79.79 0 0 1 .79-.8.83.83 0 0 1 .4.11l5.93 3.41a.79.79 0 0 1 .29 1.08.81.81 0 0 1 -.29.29l-5.9 3.41a.83.83 0 0 1 -.43.11zm.79-6.24v4.07l3.53-2z" fill="#6c429c"/><g fill="#610ac3"><path d="m11.2 5.84-4 4h-2.34v-.84l3.19-3.17z" opacity=".2"/><path d="m19.45 5.84-4 4h-3.14l4-4z" opacity=".2"/><path d="m27.07 5.84v.66l-3.33 3.32h-3.15l4-4z" opacity=".2"/></g><path d="m27.93 10.42v-4.32a1.1 1.1 0 0 0 -.32-.79 1.16 1.16 0 0 0 -.8-.35h-21.34a1.33 1.33 0 0 0 -1.47 1.16 1.09 1.09 0 0 0 0 .18v18.44a2.27 2.27 0 0 0 2.2 2.26h19.57a2.25 2.25 0 0 0 2.23-2.09v-.24zm-1.87-1.52v.51h-.51zm-1.45-2.05h.86l-2.56 2.56h-.91zm-4.36 0h1.75l-2.6 2.56h-1.72zm-3.52 0h.88l-2.61 2.56h-.87zm-7.86 0h.87l-2.58 2.56h-.86zm-3 0h.35l-.35.35zm20.19 17.81a.56.56 0 0 1 -.38.52h-19.45a.41.41 0 0 1 -.33-.43c0-.57 0-11.67 0-13.47h1.66a1 1 0 0 0 .66-.28l4.16-4.16h1.72l-2.84 2.85a.86.86 0 0 0 -.29.65.91.91 0 0 0 .27.66 1 1 0 0 0 .67.28h14.15z" fill="#6c429c"/></svg>