<svg enable-background="new 0 0 32 32" viewBox="0 0 32 32" xmlns="http://www.w3.org/2000/svg"><path d="m0 0h32v32h-32z" fill="none"/><path d="m28.05 22.5c-.15561-.16449-.37363-.25533-.6-.25h-.65v-15.34c.00498-1.50828-1.21369-2.73502-2.72197-2.74-.00601-.00002-.01202-.00002-.01803 0h-15.82c-1.51027.00331-2.73221 1.22973-2.73 2.74v15.34h-.66c-.46623-.00167-.84615.37378-.85.84v.76c.0044 2.54973 2.07027 4.61559 4.62 4.62h15.06c2.54973-.0044 4.6156-2.07027 4.62-4.62v-.75c.00067-.22547-.08943-.44172-.25-.6zm-4.37 4.26h-15.06c-1.56826-.00064-2.85455-1.24272-2.91-2.81h20.88c-.05545 1.56728-1.34174 2.80937-2.91 2.81zm-16.47-19.85c-.00055-.5683.4597-1.02945 1.028-1.03h.002 15.82c.5683-.00055 1.02945.4597 1.03 1.028v.002 15.34h-17.88z" fill="#6c429c"/><path d="m22.65002 7.41998h-12.98004c-.51996 0-.94.42004-.94.94v12.54004h14.86005v-12.54003c0-.51996-.42005-.94001-.94001-.94001zm-9.26001 4.69001h1.64001l.10999 1.35999h-1.60004zm1.39997 6.80999c-.21997 0-.39996-.17999-.39996-.39996 0-.22003.17999-.40002.39996-.40002.22003 0 .40002.17999.40002.40002 0 .21997-.17999.39996-.40002.39996zm-1.02997-3.35998-.14001-1.23999h1.58002l.10998 1.23999zm3.79999 0h-1.40002l-.09998-1.23999h1.59998zm.16998-2.09003h-1.75l-.09998-1.35998h1.96002zm1.63001 5.05005c0 .21997-.17999.39996-.39996.39996-.22003 0-.40002-.17999-.40002-.39996 0-.22003.17999-.40002.40002-.40002h.01996c.21002 0 .38.16998.38.38zm.48004-3.63001c-.09003.39002-.43006.66999-.83002.66999h-.60004l.10004-1.23999h1.45001zm.67999-1.42004h-2.02002l.15002-1.35999h1.87z" fill="#610ac3" opacity=".2"/><path d="m21.255 11.416c-.08166-.09475-.19993-.15006-.325-.152h-7.641l-.032-.292v-.011c-.15491-1.14261-1.13194-1.99393-2.285-1.991-.23003.01127-.40736.20689-.39609.43691.0105.21426.18184.38559.39609.39609.731.00244 1.34899.542 1.45 1.266l.606 5.542c.05448.49002.31901.93225.725 1.212-.3769.57377-.2173 1.34445.35648 1.72134.57377.3769 1.34445.2173 1.72134-.35648.20843-.3173.26042-.71245.14118-1.07287h1.818c-.21815.64858.13079 1.3512.77936 1.56934.64858.21815 1.3512-.13079 1.56934-.77936.21815-.64858-.13079-1.3512-.77936-1.56934-.12899-.04339-.26425-.06522-.40034-.06464h-4.252c-.43275-.00233-.79536-.32798-.844-.758l-.011-.108h5.163c.79608-.00376 1.48145-.56289 1.645-1.342l.195-.942c.01345-.01027.02154-.02608.022-.043l.465-2.306c.02169-.12559-.00983-.25455-.087-.35599zm-2.295 6.7c.21701-.0039.3961.16886.4.38587.00008.00471.00008.00942 0 .01413 0 .22091-.17908.4-.4.4-.22091 0-.4-.17908-.4-.4 0-.22091.17909-.4.4-.4zm-4.167 0c.22091 0 .4.17908.4.4s-.17909.4-.4.4-.4-.17908-.4-.4c0-.22091.17909-.4.4-.4zm3.886-6.007h1.732l-.281 1.364h-1.559zm-5.293 0h1.645l.108 1.364h-1.598zm.379 3.453-.141-1.245h1.58l.108 1.245zm3.8 0h-1.408l-.1-1.245h1.6zm.162-2.089h-1.743l-.108-1.364h1.959zm2.114 1.418c-.08503.38776-.42605.6658-.823.671h-.606l.1-1.245h1.45z" fill="#6c429c"/></svg>