<svg viewBox="0 0 32 32" xmlns="http://www.w3.org/2000/svg"><path d="m0 0h32v32h-32z" fill="none"/><path d="m0 0h32v32h-32z" fill="none"/><g fill="#6c429c"><path d="m25 6.24h-12.18v1.76h12.18a.35.35 0 0 1 .34.35v16.65a.35.35 0 0 1 -.34.35h-11.16a1.09 1.09 0 0 0 -.26 0 1 1 0 0 0 -.23 0h-.53v.43a.52.52 0 0 1 -.49.52h-2.45a.51.51 0 0 1 -.49-.53v-.47h-2.39a.35.35 0 0 1 -.37-.3v-16.65a.35.35 0 0 1 .37-.35h2.39v-1.76h-2.39a2.11 2.11 0 0 0 -2.1 2.11v16.65a2.11 2.11 0 0 0 2.1 2.06h6.39a.78.78 0 0 0 .21 0 .78.78 0 0 0 .26 0h11.14a2.11 2.11 0 0 0 2.13-2.06v-16.65a2.11 2.11 0 0 0 -2.13-2.11z"/><path d="m24.31 22.52a.86.86 0 0 1 -.85.86h-1.94a.86.86 0 0 1 -.86-.86.85.85 0 0 1 .86-.84h1.94a.85.85 0 0 1 .85.84z"/><path d="m19.68 18.94a.85.85 0 0 1 -.85.84h-1.94a.85.85 0 1 1 0-1.69h1.94a.85.85 0 0 1 .85.85z"/><path d="m19.68 22.52a.86.86 0 0 1 -.85.86h-1.94a.86.86 0 0 1 -.85-.86.85.85 0 0 1 .85-.84h1.94a.85.85 0 0 1 .85.84z"/><path d="m20.66 18.94a.85.85 0 0 1 .86-.85h1.94a.85.85 0 1 1 0 1.69h-1.94a.85.85 0 0 1 -.86-.84z"/></g><path d="m12.56 27.15h-2.45a1.37 1.37 0 0 1 -1.34-1.4v-19.49a1.37 1.37 0 0 1 1.34-1.41h2.45a1.37 1.37 0 0 1 1.34 1.4v19.5a1.37 1.37 0 0 1 -1.34 1.4z" fill="#610ac3" opacity=".2"/><path d="m12.33 4h-2.46a2.24 2.24 0 0 0 -2.18 2.24v19.47a2.26 2.26 0 0 0 .42 1.35 2.22 2.22 0 0 0 1.77.94h2.46a2.25 2.25 0 0 0 2.17-2.28v-19.48a2.24 2.24 0 0 0 -2.18-2.24zm.49 21.73a.52.52 0 0 1 -.49.52h-2.45a.51.51 0 0 1 -.49-.53v-19.48a.51.51 0 0 1 .49-.49h2.45a.53.53 0 0 1 .49.49z" fill="#6c429c"/><rect fill="#610ac3" height="4.9" opacity=".2" rx=".98" width="7.05" x="17.51" y="10.81"/></svg>