<svg enable-background="new 0 0 32 32" viewBox="0 0 32 32" xmlns="http://www.w3.org/2000/svg"><path d="m0 0h32v32h-32z" fill="none"/><g fill="#6c429c"><path d="m21.6 16.2c-.2-.2-.4-.3-.7-.3h-1.9c.8-1.6 1.2-3.4 1.2-5.1-.1-.9-.3-1.8-.7-2.5l5.7-3-.7-1.5-6.1 3.2c-.3-.2-.6-.2-.9 0l-3 1.5c-.2.1-.3.3-.4.5v.2l-7.2 3.5.7 1.3 7.2-3.5.2.3c.1.1.2.2.3.2.2 0 .3 0 .5-.1l1.5-.8c.2.8.2 1.7 0 2.5-.3 1.2-.8 2.3-1.6 3.2h-3.7c-.8-.1-1.2 1.1-1.4 1.7-.7 2.1-.8 4.3-.6 6.5.2 1.2.5 2.5 1 3.6.2.3.5.6.9.5h8.9c.3 0 .7-.2.8-.5 1-1.7 1.5-3.7 1.4-5.7 0-.6-.2-4.3-1.4-5.7zm-2.8-5.6v.1.1.8c-.2 1.5-.7 3-1.4 4.4-.1.2-.1.5 0 .8s.3.4.6.4h2.7c.7 1.1 1 4 1.1 4.9.1 1.7-.3 3.3-1.1 4.8h-8.5c-.4-1-.6-2-.8-3-.2-2 0-4 .6-5.9.1-.3.2-.5.3-.8h3.6c.3 0 .6-.1.8-.4 1-1.1 1.6-2.5 2-3.9.4-1.2.3-2.5-.1-3.6v-.1s0-.1-.1-.1c-.1-.2-.2-.3-.4-.4s-.4-.1-.6 0l-1.7.8-.2-.3 2.2-1.1v.1l.2.1v.1c.1.1.2.2.3.4.3.5.4 1.1.5 1.8z"/><path d="m15.9 22.3c0 .1 0 .1-.1.1h-3.8c-.1 0-.1 0-.1-.1 0-1.5.3-2.9.8-4.3 0 0 0-.1.1-.1h3c.1 0 .1 0 .1.1z"/><path d="m20.9 22.3c0 .1 0 .1-.1.1h-3.8c-.1 0-.1 0-.1-.1v-4.2c0-.1 0-.1.1-.1h3s.1 0 .1.1c.6 1.3.8 2.7.8 4.2"/></g><path d="m20.9 23.2c-.1 1-.3 2.1-.8 3 0 0-.1.1-.1.1h-7.2s-.1 0-.1-.1c-.4-.9-.7-2-.8-3z" fill="#610ac3" opacity=".2"/></svg>