<svg enable-background="new 0 0 32 32" viewBox="0 0 32 32" xmlns="http://www.w3.org/2000/svg"><path d="m0 0h32v32h-32z" fill="none"/><path d="m6.7 11.7-.8.4.8.4v9.4h-1.8v-10.7h1.8z" fill="#6c429c"/><path d="m7.6 9.6v1.6l3.3-1.6zm13.5 0 3.4 1.7v-1.7zm1.6 4.1v7.2c0 .7-.4 1.4-1.1 1.7l-5 2.2c-.4.2-.9.2-1.3 0l-5-2.2c-.7-.3-1.1-1-1.1-1.7v-7.2l-1.8-.9v8c0 1.5.8 2.8 2.2 3.4l5 2.1c.4.2.9.3 1.3.3.5 0 .9-.1 1.3-.3l5-2.1c1.3-.6 2.2-1.9 2.1-3.3v-8.1z" fill="#6c429c"/><path d="m15.7 6.3-10.4 5.1c-.3.2-.5.6-.3 1 .1.1.2.3.3.3l10.3 5.1c.2.1.5.1.7 0l10.3-5.1c.4-.2.5-.7.3-1.1-.1-.1-.2-.3-.4-.4l-10.3-5c-.1 0-.3 0-.5.1z" fill="#610ac3" opacity=".2"/><path d="m27.1 10.5-10.4-5c-.4-.2-1-.2-1.4 0l-10.4 5c-.7.4-1.1 1.3-.8 2.1.1.4.4.8.8 1l1.8.9.8.4 1.8.9 6 2.9c.2.1.5.2.7.2s.5-.1.7-.2l6-3 1.8-.9 2.6-1.3c.3-.2.6-.4.8-.8.3-.7 0-1.7-.8-2.2zm-2.6 2.3-1.8.9-6.7 3.3-6.7-3.3-1.8-.9-.8-.4-.8-.4.8-.4.8-.4 3.3-1.6 5.2-2.5 5.1 2.5 3.4 1.7 1.6.8z" fill="#6c429c"/></svg>