<svg viewBox="0 0 32 32" xmlns="http://www.w3.org/2000/svg"><path d="m0 0h32v32h-32z" fill="none"/><g fill="#6c429c"><path d="m14.34 6.68h-.17z"/><path d="m15.07 7.85s-.01-.01 0 0z"/><path d="m16 7.55a0 0 0 0 1 -.06 0z"/><path d="m16.54 7.57s0-.01 0 0z"/><path d="m16.69 7.35s0 0 0 0z"/><path d="m15.42 17.23s0 0 0 0z"/><path d="m12 15.37h-.09.09s0 0 0 0z"/><path d="m25 17a.39.39 0 0 1 -.13.28.41.41 0 0 0 .13-.28z"/><path d="m23.6 14.52a3 3 0 0 1 0 .42 3.15 3.15 0 0 0 0-.42zm-2.18-4.34a.87.87 0 0 0 -.11-.09 7.49 7.49 0 0 1 2.12 3.61.5.5 0 0 1 0 .12v.13a3.61 3.61 0 0 1 .12.57 6.91 6.91 0 0 0 -2.13-4.34zm-5.92 7.82h.05zm.43-10.42a0 0 0 0 0 .06 0zm-1.76-.84h.17zm-4.88 2.17c.1-.1.22-.19.33-.3-.11.11-.23.2-.33.3z"/><path d="m25.43 14.24a6.68 6.68 0 0 0 -.13-.78 8.2 8.2 0 0 0 -.74-2.08 6.44 6.44 0 0 0 -.42-.72.14.14 0 0 0 -.05-.09 6.85 6.85 0 0 0 -.42-.59.38.38 0 0 0 -.1-.13c-.15-.18-.31-.38-.48-.55a4.54 4.54 0 0 0 -.38-.38l-.16-.14a5.05 5.05 0 0 0 -.55-.43s0 0-.05 0a7.63 7.63 0 0 0 -.68-.48l-.12-.07a7.26 7.26 0 0 0 -.67-.38l-.1-.06-.68-.36-.53-.19-.43-.14a7.68 7.68 0 0 0 -.83-.19l-.38-.07a1.67 1.67 0 0 0 .12-.62 1.79 1.79 0 1 0 -3.57 0 1.7 1.7 0 0 0 .13.67h-.12c-.29 0-.57.12-.85.19h-.11l-.39.14a7.85 7.85 0 0 0 -1.29.56l-.37.19-.39.24a9.54 9.54 0 0 0 -1.07.79c-.11.11-.23.2-.33.3s-.26.25-.38.38-.33.37-.48.55a1.13 1.13 0 0 0 -.1.13 6.85 6.85 0 0 0 -.42.59.41.41 0 0 1 0 .09 6.44 6.44 0 0 0 -.42.72 7.93 7.93 0 0 0 -.74 2.08 6.68 6.68 0 0 0 -.13.78 7 7 0 0 0 -.07 1v1.81a.86.86 0 0 0 0 .27 1.15 1.15 0 0 0 .25.37.93.93 0 0 0 .37.19 1.05 1.05 0 0 0 .24 0h.06a.41.41 0 0 0 .16 0l.2-.07a.76.76 0 0 0 .17-.08 1.49 1.49 0 0 0 .17-.18 4.15 4.15 0 0 1 2.22-1.5h.06a4.21 4.21 0 0 1 .49-.09 3.19 3.19 0 0 1 .54 0 5 5 0 0 1 .67.05 4.54 4.54 0 0 1 2.35 1.04 2.27 2.27 0 0 1 .31.31l.2.22a.34.34 0 0 0 0 .14v7.49a1.06 1.06 0 0 1 -1.06 1 1 1 0 0 1 -.75-.31 1 1 0 0 1 -.31-.72v-.08a.86.86 0 0 0 -.29-.61.9.9 0 0 0 -.63-.24 1 1 0 0 0 -.62.28.93.93 0 0 0 -.23.63 2.83 2.83 0 1 0 5.65 0v-7.3a.54.54 0 0 0 .15-.15 3.17 3.17 0 0 1 .28-.34 2.27 2.27 0 0 1 .31-.31 4.34 4.34 0 0 1 1.64-.94 3.29 3.29 0 0 1 .72-.17h.32.39a3.4 3.4 0 0 1 .45 0h.32a2.44 2.44 0 0 1 .26.06 4.12 4.12 0 0 1 2.22 1.51s0 0 0 0a1.21 1.21 0 0 0 .16.16.76.76 0 0 0 .19.12l.2.07a.41.41 0 0 0 .16 0 1.15 1.15 0 0 0 .26 0l.13-.05a.35.35 0 0 0 .12-.07.89.89 0 0 0 .36-.45.35.35 0 0 0 0-.13.68.68 0 0 0 0-.14v-1.72a7 7 0 0 0 .02-1.02zm-8.76-6.89s0 0 0 0zm-.8-2.1a.53.53 0 0 1 .53.54.52.52 0 0 1 -.39.5h-.27a.51.51 0 0 1 -.4-.5.54.54 0 0 1 .53-.54zm.13 2.3a0 0 0 0 1 -.06 0zm-1.66-.88h-.17zm-2.44 8.66h.1s0 0 0 0zm-.28-1.85v.59a5.48 5.48 0 0 0 -1.33.11l-.39.09a5.84 5.84 0 0 0 -1.48.63 7 7 0 0 1 2.23-4.77c.18-.16.35-.32.54-.46a4.67 4.67 0 0 1 .58-.41 6.82 6.82 0 0 1 1.88-.86 7.45 7.45 0 0 0 -2.03 5.1zm3.88 4.52h.05zm3.11-3.66a6.09 6.09 0 0 0 -2.61 1.55 6 6 0 0 0 -2.61-1.57v-.82a5.72 5.72 0 0 1 2.61-4.78 5.7 5.7 0 0 1 2.61 4.78zm5 .62a6.06 6.06 0 0 0 -1.36-.6 1.36 1.36 0 0 0 -.25-.07l-.31-.07a6 6 0 0 0 -1.2-.13.25.25 0 0 0 -.12 0v-.59a7.45 7.45 0 0 0 -2-5.07 7.39 7.39 0 0 1 1.89.88l.38.26a2.29 2.29 0 0 1 .23.17 5.58 5.58 0 0 1 .46.39.87.87 0 0 1 .11.09 6.91 6.91 0 0 1 2.18 4.34 3.15 3.15 0 0 1 0 .43z"/></g><path d="m18.61 13.5v.82a6.09 6.09 0 0 0 -2.61 1.57 6 6 0 0 0 -2.61-1.57v-.82a5.72 5.72 0 0 1 2.61-4.78 5.7 5.7 0 0 1 2.61 4.78z" fill="#610ac3" opacity=".2"/><path d="m16.4 5.79a.52.52 0 0 1 -.39.5h-.27a.51.51 0 0 1 -.4-.5.54.54 0 0 1 .53-.54.53.53 0 0 1 .53.54z" fill="#610ac3" opacity=".2"/></svg>