<svg viewBox="0 0 32 32" xmlns="http://www.w3.org/2000/svg"><path d="m0 0h32v32h-32z" fill="none"/><path d="m16 17.85a10.42 10.42 0 0 0 -7.61 3.34 7.85 7.85 0 0 0 15.22 0 10.42 10.42 0 0 0 -7.61-3.34z" fill="#610ac3" opacity=".2"/><g fill="#6c429c"><path d="m21.63 10.92a.94.94 0 0 0 -1.3-.2.91.91 0 0 0 -.26 1.19 16.91 16.91 0 0 1 2.71 6.93 10.8 10.8 0 0 0 -13.54 0c.34-4.54 5.01-10.44 6.76-12.51.56.67 1.11 1.34 1.64 2.05a.88.88 0 0 0 .64.3.91.91 0 0 0 .72-.24.94.94 0 0 0 .15-1.2c-1.28-1.68-2.34-2.86-2.43-2.95a.94.94 0 0 0 -1.32 0c-.82.9-8 8.89-8 15.07a8.65 8.65 0 0 0 8.6 8.64 9 9 0 0 0 1.13-.08l.38-.05.55-.12a8.69 8.69 0 0 0 6.42-6.7 9.07 9.07 0 0 0 .17-1.7c0-2.35-1.02-5.15-3.02-8.43zm.92 10.26a.28.28 0 0 0 0 .09l-.07.23v.05a0 0 0 0 0 0 0l-.06.17-.06.15a1.11 1.11 0 0 1 -.09.19v.11c0 .07-.07.14-.11.22v.05a1.72 1.72 0 0 0 -.09.19.79.79 0 0 0 -.08.13.47.47 0 0 1 -.05.1l-.08.11-.1.15a.28.28 0 0 0 0 .07l-.13.19.19.13-.23-.08-.08.09-.09.11-.11.14-.05.07-.26.16-.85.79-1.57.9-1.64.44h-.2-.64a1.52 1.52 0 0 0 -.32 0h-.48-.16-.29l-1.63-.5-1-.57-1.16-1-.06-.16-.1-.11a.94.94 0 0 0 -.14-.16l-.19.16.14-.23v-.06s0-.05-.05-.05l-.07-.08a.91.91 0 0 0 -.07-.14l-.09-.11a.7.7 0 0 0 -.1-.16c0-.05-.05-.08-.06-.08l-.1-.19a.41.41 0 0 0 -.07-.11v-.08l-.06-.11v-.07s0-.09-.05-.09a.58.58 0 0 0 0-.11s0-.07 0-.11v-.05a.51.51 0 0 0 -.05-.12c0-.1-.06-.18-.1-.31v-.09a.52.52 0 0 1 0-.11v-.08s0 0 0-.1a9 9 0 0 1 12.6-.49 4.64 4.64 0 0 1 .5.49z"/><path d="m16.69 4.3h-.05a.89.89 0 0 0 -.64-.3 1 1 0 0 0 -.65.29s-1 1.13-2.43 3a.94.94 0 0 0 .08 1.16.93.93 0 0 0 .68.23.89.89 0 0 0 .65-.32c.67-.88 1.26-1.59 1.63-2 1.74 2.06 6.41 7.94 6.77 12.48a10.8 10.8 0 0 0 -13.54 0 16.74 16.74 0 0 1 2.7-6.92.35.35 0 0 0 .08-.13.88.88 0 0 0 .06-.71.93.93 0 0 0 -.47-.54.9.9 0 0 0 -.7 0 .85.85 0 0 0 -.53.45 25.42 25.42 0 0 0 -2.23 4.5 11.93 11.93 0 0 0 -.75 3.86 8.83 8.83 0 0 0 .17 1.7 8.73 8.73 0 0 0 6.42 6.71l.55.1a2.38 2.38 0 0 0 .37.06 8.8 8.8 0 0 0 1.14.08 8.66 8.66 0 0 0 8.63-8.65c.02-6.35-7.63-14.69-7.94-15.05zm4.62 19.28s0 .05-.06.07l-.1.12-.38.41-1.34 1-1.3.59-1.58.32h-.28a.86.86 0 0 0 -.28 0h-.29l-.76-.08-1.49-.41-1.25-.6-1.09-.92-.11-.08-.38-.44-.09-.11-.23-.34-.06-.11-.17-.29v-.06l-.26-.53-.11-.25-.1-.28-.23.08.21-.13-.09-.32s0 0 0-.05c.15-.16.32-.33.5-.49a9 9 0 0 1 12.6.49l-.12.43c0 .09-.06.18-.1.27l.23.09h-.27c0 .06-.05.11-.07.16z"/></g></svg>