<svg viewBox="0 0 32 32" xmlns="http://www.w3.org/2000/svg"><path d="m0 0h32v32h-32z" fill="none"/><g fill="#6c429c"><path d="m7.96 6.81h1.76v2.27h-1.76z" transform="matrix(.70944774 -.70475804 .70475804 .70944774 -3.03 8.54)"/><path d="m15.11 4h1.77v2.99h-1.77z"/><path d="m22.03 7.06h2.27v1.76h-2.27z" transform="matrix(.70710678 -.70710678 .70710678 .70710678 1.17 18.7)"/><path d="m4.59 12.39h2.68v1.76h-2.68z"/><path d="m24.74 12.39h2.68v1.76h-2.68z"/></g><path d="m12 22v2.11a.68.68 0 0 0 .68.68h.48v1.61a.68.68 0 0 0 .68.68h4.4a.68.68 0 0 0 .68-.68v-1.59h.48a.67.67 0 0 0 .68-.68v-2.13z" fill="#610ac3" opacity=".2"/><path d="m23.8 12.89c-.07-.19-.13-.38-.21-.56a4.58 4.58 0 0 0 -.33-.71 2.47 2.47 0 0 0 -.19-.36 7.37 7.37 0 0 0 -1.36-1.69 8.65 8.65 0 0 0 -11.42 0 7.69 7.69 0 0 0 -2.44 5.7 7.37 7.37 0 0 0 2.53 6l.16.16a2.76 2.76 0 0 1 .54.54v2.16a1.54 1.54 0 0 0 1.17 1.5v.8a1.56 1.56 0 0 0 1.55 1.57h4.4a1.58 1.58 0 0 0 1.57-1.56v-.8a1.55 1.55 0 0 0 1.16-1.5v-2.14a2.43 2.43 0 0 1 .55-.56l.15-.15c.24-.24.54-.54.82-.88a5.58 5.58 0 0 0 .44-.55l.11-.15q.15-.24.3-.51l.09-.18a8.18 8.18 0 0 0 .76-3.69 8.45 8.45 0 0 0 -.35-2.44zm-4.63 11.05h-1.17v2.31h-4v-2.31h-1.16v-1h6.33zm2.68-5.74-.08.13c-.06.12-.14.25-.21.37a.76.76 0 0 0 -.08.11q-.15.21-.33.42c-.23.28-.48.51-.73.77l-.13.13a4.37 4.37 0 0 0 -.9 1h-1.51l2.12-3.68-2-1.14-2 3.5-2-3.5-2 1.14 2.11 3.7h-1.51a4.6 4.6 0 0 0 -.88-1l-.15-.15a5.75 5.75 0 0 1 -2-4.72 5.91 5.91 0 0 1 1.87-4.41 6.94 6.94 0 0 1 9.08 0 5.45 5.45 0 0 1 1.05 1.3c.05.09.11.18.15.27a5.45 5.45 0 0 1 .28.56 3.66 3.66 0 0 1 .15.43 6.31 6.31 0 0 1 .28 1.89 6.67 6.67 0 0 1 -.58 2.88z" fill="#6c429c"/></svg>