<svg enable-background="new 0 0 32 32" viewBox="0 0 32 32" xmlns="http://www.w3.org/2000/svg"><path d="m0 0h32v32h-32z" fill="none"/><path d="m28.55 22.5c-.15561-.16449-.37363-.25533-.6-.25h-.65v-15.34c.00498-1.50828-1.21369-2.73502-2.72197-2.74-.00601-.00002-.01202-.00002-.01803 0h-15.82c-1.51027.00331-2.73221 1.22973-2.73 2.74v15.34h-.66c-.46623-.00167-.84615.37378-.85.84v.76c.0044 2.54973 2.07027 4.61559 4.62 4.62h15.06c2.54973-.0044 4.6156-2.07027 4.62-4.62v-.75c.00067-.22547-.08943-.44172-.25-.6zm-4.37 4.26h-15.06c-1.56826-.00064-2.85455-1.24272-2.91-2.81h20.88c-.05545 1.56728-1.34174 2.80937-2.91 2.81zm-16.47-19.85c-.00055-.5683.4597-1.02945 1.028-1.03h.002 15.82c.5683-.00055 1.02945.4597 1.03 1.028v.002 15.34h-17.88z" fill="#6c429c"/><path d="m23.15002 7.41998h-12.98004c-.51996 0-.94.42004-.94.94v12.54004h14.86005v-12.54003c0-.51996-.42005-.94001-.94001-.94001zm-2.76001 8.88001c0 1.66003-1.34003 3-3 3h-1.88c-1.66003 0-3-1.33997-3-3v-3.09998c0-1.66003 1.33997-3 3-3h1.88c1.65997 0 3 1.33997 3 3z" fill="#610ac3" opacity=".2"/><path d="m21.29999 13.04999-.01996-.06c-.92004-2.54999-3.73004-3.88-6.28003-2.95996-1.39001.48999-2.46002 1.56995-2.97998 3-.36005 1.03998-.36005 2.18994.01996 3.27997.72003 2 2.61005 3.23999 4.62 3.23999.55005 0 1.11005-.08997 1.66003-.27997 1.38-.5 2.46002-1.58002 2.95001-2.95001l.02997-.07001c.35998-1.03998.35998-2.17999 0-3.20001zm-7.78998-.42999c.39996-.62.97998-1.09998 1.64996-1.40002-.17999.45001-.29999.92004-.37 1.40002zm3.14996-1.70002c.07001.04999.27002.27002.46002.85004.09003.27997.16003.56.22003.84998h-1.36005c.05005-.28998.12-.57001.21002-.84998.20002-.57001.39003-.80005.46998-.85004zm1.87006 1.70002c-.07001-.47998-.20001-.95001-.37006-1.40002.67005.30004 1.24005.78002 1.64002 1.40002zm-5.51001 2.88c-.07001-.28003-.10004-.56-.10004-.84998 0-.29004.03003-.58002.10004-.86005h1.63995c-.01996.28004-.02997.57002-.02997.86005 0 .27997.01001.56995.02997.84998zm.5 1.16998h1.26996c.07001.48004.19.95001.37 1.40002-.66999-.28997-1.25001-.78002-1.63996-1.40002zm3.59998.85004c-.19.57996-.39001.79999-.46002.85999-.07996-.06-.26996-.28003-.45996-.85999-.09003-.27002-.16998-.56-.22003-.85004h1.36005c-.05006.29004-.13002.57001-.22004.85004zm.36999-2.02002h-1.65997c-.02002-.28003-.03003-.57001-.03003-.84998 0-.29004.01001-.58002.03003-.86005h1.65997c.02002.28003.03003.57001.03003.86005 0 .28998-.01001.56995-.03003.84998zm.66998 2.57001c.17004-.45001.29004-.91998.36005-1.40002h1.27997c-.39997.61999-.96997 1.11004-1.64002 1.40002zm2.14002-2.57001h-1.64001c.01001-.28003.02002-.57001.02002-.84998 0-.29004-.01001-.58002-.02002-.86005h1.64001c.13.56001.13 1.15003 0 1.71003z" fill="#6c429c"/></svg>