<svg enable-background="new 0 0 32 32" viewBox="0 0 32 32" xmlns="http://www.w3.org/2000/svg"><path d="m0 0h32v32h-32z" fill="none"/><circle cx="16" cy="16" fill="#fff" r="12"/><path d="m16 27.7c-6.5 0-11.7-5.2-11.7-11.7s5.2-11.7 11.7-11.7 11.7 5.2 11.7 11.7c0 6.5-5.2 11.7-11.7 11.7zm0-21.7c-5.5 0-10 4.5-10 10s4.5 10 10 10 10-4.5 10-10-4.5-10-10-10z" fill="#6c429c"/><circle cx="16" cy="16" fill="#610ac3" opacity=".2" r="8.7"/><g fill="#6c429c"><path d="m12.6 20 3.4-3.4c0-.1 0-.1 0-.2s-.1-.1-.1-.1h-1.9v-4.2c0-.1-.1-.2-.2-.2h-2.7c-.1 0-.2.1-.2.2v4.2h-1.7c-.1 0-.1 0-.2.1v.1s0 .1.1.1l3.3 3.4c0 .1.1.1.2 0z"/><path d="m19.6 12 3.4 3.4v.2c0 .1-.1.1-.2.1h-1.8v4.2c0 .1-.1.2-.2.2h-2.7c-.1 0-.2-.1-.2-.2v-4.2h-1.8c-.1 0-.1 0-.2-.1 0 0 0 0 0-.1v-.1l3.3-3.3c.3-.1.3-.1.4-.1z"/></g></svg>