<svg viewBox="0 0 32 32" xmlns="http://www.w3.org/2000/svg"><path d="m0 0h32v32h-32z" fill="none"/><path d="m11.09 4.91v3a2.32 2.32 0 0 1 -2.32 2.32h-2.83v-3a2.33 2.33 0 0 1 2.33-2.32z" fill="#610ac3" opacity=".2"/><path d="m23.57 4h-12-.33-.19-2.78a3.23 3.23 0 0 0 -3.27 3.22v3a.13.13 0 0 0 0 .06 2.09 2.09 0 0 0 0 .25v14a3.39 3.39 0 0 0 3.43 3.47h15.14a3.39 3.39 0 0 0 3.43-3.39v-17.22a3.39 3.39 0 0 0 -3.43-3.39zm-16.72 3.23a1.43 1.43 0 0 1 1.42-1.42h1.92v2.1a1.43 1.43 0 0 1 -1.42 1.42h-1.92zm18.23 17.38a1.52 1.52 0 0 1 -1.51 1.51h-15.14a1.52 1.52 0 0 1 -1.51-1.51v-13.47h1.85a3.24 3.24 0 0 0 3.23-3.23v-2h11.57a1.52 1.52 0 0 1 1.51 1.51z" fill="#6c429c"/><path d="m24 22.78a1.12 1.12 0 0 1 -.26.84 1.17 1.17 0 0 1 -.79.4h-13.8a1.15 1.15 0 0 1 -.72-.27 1.13 1.13 0 0 1 -.43-.75 1.17 1.17 0 0 1 .27-.84 1.15 1.15 0 0 1 .78-.4h13.7a1.15 1.15 0 0 1 1.25 1.02z" fill="#6c429c"/><circle cx="18.89" cy="16.19" fill="#610ac3" opacity=".2" r="4.37"/></svg>