<svg enable-background="new 0 0 32 32" viewBox="0 0 32 32" xmlns="http://www.w3.org/2000/svg"><path d="m0 0h32v32h-32z" fill="none"/><path d="m9.77389 24h13.14511v3h-13.14511z" fill="#610ac3" opacity=".2"/><path d="m25.37 11.81h-6.59998l-.26001-2.96997h.84998v1.00995c0 .47003.39001.86005.85999.86005.47003 0 .85004-.39001.85004-.86005v-1.00995h1.10999v1.00995c0 .47003.38.86005.85004.86005.46997 0 .84998-.39001.84998-.86005v-1.03998c.40002-.09998.67999-.47998.65002-.90002-.02004-.21998-.12008-.43-.30007-.57996-.16998-.15003-.38995-.22003-.60998-.20002h-5.26001l-.09998-1.23999c-.02002-.22003-.12-.41003-.28003-.56l-1.40997-1.26001c-.32001-.29999-.81-.29999-1.14001 0l-1.40997 1.26001c-.16003.14996-.26001.34998-.28003.57001l-.09999 1.22998h-5.26001c-.46002-.03003-.87.32001-.91003.78998-.02997.42005.25.79004.65003.89002v1.03998c0 .47003.38.86005.84998.86005.47003 0 .85004-.39001.85004-.86005v-1.00995h1.09998v1.00995c0 .47003.39001.86005.86005.86005.46997 0 .84998-.39001.84998-.86005v-1.00995h.84998l-.25 2.96997h-6.61001c-.46997 0-.84998.38-.84998.84998 0 .47003.38.86005.84998.86005h.84003v1.01001c-.00001.46996.38.84996.84997.84996.47998 0 .85999-.38.85999-.84998v-1.01001h1.10004v1.01001c-.00001.46998.38994.84998.85997.84998.46997 0 .84998-.38.84998-.84998v-1.01001h1.10004l-.27002 3.10999-1.69 6.53998h-.62c-1.28998 0-2.33002 1.04004-2.34003 2.33002v1.79999c0 .47003.39001.85004.85004.85004h13.96997c.47003 0 .85004-.38.85004-.85004v-1.79999c0-1.28998-1.04999-2.33002-2.33002-2.34003h-.62l-1.69-6.50995-.28003-3.13h1.11005v1.01001c0 .46997.38995.84997.85998.84997.46997 0 .84998-.38.84998-.84998v-1.01001h1.10004v1.01001c0 .39996.27997.73999.64996.82996v.02002h.20001c.47003 0 .85004-.38.85004-.84003v-1.01996h.83997c.47003 0 .85999-.39001.85999-.86005-.00001-.46996-.38996-.84996-.85999-.84996zm-3.25 14.64001h-12.25v-.95001c0-.34998.28003-.63.63-.63h11c.32001 0 .58002.23999.62.54999zm-8.40998-3.29004 2.28998-2.51996 2.28998 2.51996zm4.81-2.27997-1.37-1.51001.75995-.83997zm-3.10004-14.5.58002-.53002.59003.53002.06.75h-1.30005zm-.21997 2.46003h1.59998l.26001 2.96997h-2.12zm-.40002 4.67999h2.40002l.26001 2.95996-1.47003 1.62-1.45001-1.62zm-.71997 5 .76001.84998-1.37006 1.51z" fill="#6c429c"/></svg>