<svg viewBox="0 0 32.16 32.16" xmlns="http://www.w3.org/2000/svg"><path d="m.08.08h32v32h-32z" fill="none" transform="matrix(.99998719 -.00506143 .00506143 .99998719 -.08 .08)"/><path d="m22.4 22.24a2 2 0 0 1 -2 2h-12.28a2 2 0 0 1 -2-2v-12.32a2 2 0 0 1 2-2h12.31a1.92 1.92 0 0 1 1.76 1.11l1.51-1.47a4 4 0 0 0 -3.27-1.67h-12.31a4 4 0 0 0 -4 4v12.35a4 4 0 0 0 4 4h12.31a4 4 0 0 0 4-4v-7.95l-2.03 2.07zm1.81-13.71-1.81 1.81v4.55l2.07-2.07v-2.9a3.81 3.81 0 0 0 -.26-1.39z" fill="#6c429c"/><path d="m28.08 9.21-11.31 11.31-6.5-6.49 2.29-2.29 4.21 4.23 9.03-9.04z" fill="#dfcef2"/></svg>