<svg enable-background="new 0 0 32 32" viewBox="0 0 32 32" xmlns="http://www.w3.org/2000/svg"><path d="m0 0h32v32h-32z" fill="none"/><path d="m25.4 7.5v-.1c0-.1 0-.1 0-.2 0 0 0-.1-.1-.1 0 0-.1-.1-.1-.1-.1-.1-.2-.1-.3-.2-.1 0-.2-.1-.3-.1s-.3 0-.4.1c-.6.3-1.3.4-1.9.4h-.1c-1.1 0-2.1-.5-3-1.2-.1-.1-.1-.1-.2-.2l-.2-.2c-.1-.2-.3-.3-.4-.5v-.1l-.1-.2c-.1-.1-.1-.2-.1-.3-.3-.3-.6-.5-.9-.5h-2.6c-.3 0-.7.2-.8.5 0 .1-.1.2-.1.3-.1.1-.1.2-.1.2v.1c-.1.2-.2.3-.4.5l-.3.2c-.1.1-.1.2-.2.2-.8.7-1.9 1.1-3 1.1-.7 0-1.3-.1-1.9-.4-.2-.1-.4-.1-.7 0l-.2.1-.1.1s-.1.1-.1.1 0 .1-.1.1c-.1.2-.1.3-.1.4v11.7c.1 1.7.9 3.3 2.2 4.3.3.3.6.5.9.8.1.1.2.2.4.3l.4.3.8.6c.4.2.7.5 1.1.7.7.4 1.5.8 2.2 1.2.4.2.8.4 1.1.5h.1.1l.1.1c.1 0 .2 0 .4-.1l1.1-.5c.8-.4 1.5-.8 2.2-1.2.4-.2.7-.4 1.1-.7.9-.6 1.7-1.2 2.5-1.9.4-.4.8-.9 1.2-1.4l.2-.3c.1-.1.1-.2.2-.4s.2-.4.3-.7c.2-.5.3-1 .3-1.6zm-8.4-2.2.1.1zm-2.1 0-.1.1zm-5.6 3.1c-.4 0-.8-.1-1.2-.2.4.1.8.2 1.2.2zm.4 15.4c.6.5 1.2 1 1.8 1.4l.8.5-.8-.5c-.6-.5-1.3-.9-1.8-1.4zm1.7 1.6-.6-.4.6.4c.5.4 1.1.7 1.6 1-.6-.4-1.1-.7-1.6-1zm4.5 2.1-.6-.3.6.3h.1zm7.8-8.2c0 2.8-5 5.7-7.7 6.9-2.7-1.2-7.7-4.1-7.7-6.9v-10.5c.5.1.9.2 1.4.2 1.5 0 2.9-.5 4-1.4l.1-.1.3-.3c.1-.1.2-.2.2-.2.3-.3.6-.7.8-1.1h1.5c.4.6.9 1.2 1.5 1.7 1.1.9 2.6 1.4 4.1 1.5h.4c.4 0 .7-.1 1-.1z" fill="#6c429c"/><path d="m9.2 8.3c-.4-.1-.8-.1-1.2-.2.4.1.8.1 1.2.2z" fill="#6c429c"/><path d="m12.2 25.8-.8-.5c-.7-.4-1.3-.9-1.9-1.4.6.5 1.2 1 1.9 1.4z" fill="#6c429c"/><path d="m16 27.8h-.1l-.6-.3.6.3z" fill="#6c429c"/><path d="m14.9 5.1v.1z" fill="#6c429c"/><path d="m17.1 5.2v-.1z" fill="#6c429c"/><path d="m24 8.1c-.4.1-.8.2-1.2.2.4-.1.8-.1 1.2-.2z" fill="#6c429c"/><path d="m24.8 7c-.1 0-.1 0-.2 0z" fill="#6c429c"/><path d="m16 25c-1-.5-2-1.1-3-1.7-2.5-1.7-3.2-2.9-3.3-3.3v-9.7c2.4-.3 4.6-1.4 6.3-3.1 1.7 1.7 3.9 2.7 6.3 3.1v9.7c-.1.3-.8 1.5-3.3 3.2-1 .7-2 1.3-3 1.8z" fill="#610ac3" opacity=".2"/><g fill="#6c429c"><path d="m9.2 8.3c-.4-.1-.8-.1-1.2-.2.4.1.8.1 1.2.2z"/><path d="m12.9 26.5c-.6-.3-1.1-.6-1.6-1l-.6-.4.6.4c.5.4 1.1.7 1.6 1z"/><path d="m12.2 25.8-.8-.5c-.7-.4-1.3-.9-1.9-1.4.6.5 1.2 1 1.9 1.4z"/><path d="m16 27.8h-.1l-.6-.3.6.3z"/><path d="m14.9 5.1v.1z"/><path d="m17.1 5.2v-.1z"/><path d="m24 8.1c-.4.1-.8.2-1.2.2.4-.1.8-.1 1.2-.2z"/><path d="m24.8 7c-.1 0-.1 0-.2 0z"/><path d="m14.6 19.1-2.7-2.7c-.2-.1-.2-.4 0-.6l.6-.6c.2-.2.4-.2.6 0l1.9 1.8 3.9-3.9c.2-.2.4-.2.6 0l.6.6c.2.2.2.4 0 .6l-4.8 4.8c-.1.2-.4.2-.7 0 .1 0 .1 0 0 0z"/></g></svg>