<svg viewBox="0 0 32 32" xmlns="http://www.w3.org/2000/svg"><path d="m0 0h32v32h-32z" fill="none"/><g fill="#610ac3"><path d="m25.72 13.92a.65.65 0 0 1 -.7-.61v-.05a.71.71 0 0 1 .24-.52 1.79 1.79 0 0 0 .25-.23 3.91 3.91 0 0 0 0-5.52.67.67 0 0 1 .94-1 5.25 5.25 0 0 1 0 7.41l-.34.31a.59.59 0 0 1 -.39.21z" opacity=".21"/><path d="m23.6 13a.67.67 0 0 1 -.67-.67.68.68 0 0 1 .26-.52 2.67 2.67 0 0 0 .44-3.74 1.71 1.71 0 0 0 -.21-.26.68.68 0 0 1 0-1 .69.69 0 0 1 1 0 4 4 0 0 1 0 5.66 2.11 2.11 0 0 1 -.36.31.62.62 0 0 1 -.46.22z" opacity=".21"/><path d="m14.76 13.92a.61.61 0 0 1 -.43-.15l-.33-.31a5.25 5.25 0 0 1 0-7.41.69.69 0 0 1 1 0 .68.68 0 0 1 0 1 3.9 3.9 0 0 0 0 5.51 1.79 1.79 0 0 0 .25.23.67.67 0 0 1 -.46 1.21z" opacity=".21"/><path d="m16.88 13a.68.68 0 0 1 -.41-.14c-.12-.1-.24-.2-.35-.31a4 4 0 0 1 0-5.65.66.66 0 0 1 .93 0 .67.67 0 0 1 0 .94 2.67 2.67 0 0 0 0 3.76l.24.21a.68.68 0 0 1 .1.95.69.69 0 0 1 -.52.24z" opacity=".21"/><path d="m10.13 22.37h-1.49a.59.59 0 0 1 -.64-.52v-1.41a.59.59 0 0 1 .59-.59h1.52a.6.6 0 0 1 .62.56v1.43a.59.59 0 0 1 -.61.58z" opacity=".21"/></g><path d="m10.11 23.33h-1.6a1.34 1.34 0 0 1 -1.34-1.33v-1.6a1.34 1.34 0 0 1 1.34-1.34h1.6a1.34 1.34 0 0 1 1.34 1.34v1.6a1.34 1.34 0 0 1 -1.34 1.34zm-1.85-3.2v2.08h2.25v-2.08z" fill="#6c429c"/><path d="m23.91 16.15h-17.3a2.65 2.65 0 0 0 -2.61 2.7v4.55a2.66 2.66 0 0 0 2.6 2.73h17.3a2.67 2.67 0 0 0 2.6-2.73v-4.55a2.68 2.68 0 0 0 -2.59-2.7zm.82 7.26a.85.85 0 0 1 -.81.89h-17.3a.87.87 0 0 1 -.83-.89v-4.56a.86.86 0 0 1 .83-.85h17.28a.86.86 0 0 1 .83.87z" fill="#6c429c"/><circle cx="20.54" cy="9.89" fill="#610ac3" opacity=".2" r="1.74"/><path d="m20.52 7.23a2.67 2.67 0 0 0 -2.64 2.69 2.64 2.64 0 0 0 1.7 2.45v4.94h1.84v-4.92a2.66 2.66 0 0 0 -.9-5.16zm.65 3.16a.72.72 0 0 1 -.25.21.64.64 0 0 1 -.4.11.76.76 0 0 1 -.69-.39.81.81 0 0 1 0-.87.71.71 0 0 1 .35-.31.81.81 0 0 1 .68 0 .92.92 0 0 1 .31.24.81.81 0 0 1 0 1z" fill="#6c429c"/><path d="m15.59 22.37h-1.49a.59.59 0 0 1 -.62-.52v-1.41a.59.59 0 0 1 .61-.57h1.5a.6.6 0 0 1 .62.56v1.41a.59.59 0 0 1 -.61.58z" fill="#610ac3" opacity=".21"/><path d="m15.57 23.33h-1.57a1.34 1.34 0 0 1 -1.32-1.33v-1.6a1.34 1.34 0 0 1 1.32-1.35h1.6a1.34 1.34 0 0 1 1.4 1.34v1.61a1.34 1.34 0 0 1 -1.34 1.34zm-1.85-3.2v2.08h2.28v-2.08z" fill="#6c429c"/></svg>