<svg enable-background="new 0 0 32 32" viewBox="0 0 32 32" xmlns="http://www.w3.org/2000/svg"><path d="m0 0h32v32h-32z" fill="none"/><path d="m25.3 12.6v.6c0 .2 0 .4-.1.5 0 .2-.1.4-.1.5-.1.2-.1.4-.2.5l-.1.2c-.1.1-.1.3-.2.4-.1.2-.2.3-.3.4-.2.3-.4.6-.6.8-.5.5-.9.9-1.3 1.4s-.7.7-1 1c-.8.8-1.6 1.5-2.5 2.3l-.9.7-.4.4-.1.1-1.5 1.2-1.6-1.4-.4-.3c-.2-.2-.5-.4-.7-.6-.9-.7-1.7-1.5-2.5-2.3-.3-.3-.7-.6-1-1-.2-.2-.4-.4-.6-.6l-.7-.7c-.2-.3-.5-.5-.7-.8-.1-.1-.2-.3-.3-.4s-.2-.3-.2-.4l-.1-.2v-.1c-.1-.2-.2-.4-.2-.6-.1-.2-.1-.3-.1-.5l-.1-.5c0-.2 0-.4 0-.6 0-.3 0-.7.1-1 0-.1.1-.3.1-.4v-.2c0-.1 0-.1.1-.2 0-.1.1-.3.2-.4s.1-.2.2-.4.2-.3.3-.4.1-.2.2-.3.1-.2.2-.3l.3-.3c.3-.1.5-.2.7-.3.3-.1.5-.2.8-.3s.5-.1.8-.1h.3c.4 0 .8.1 1.1.3.3.1.5.3.8.4.1.1.2.2.4.3l.4.4s.2.3.3.4.2.3.3.4c0 .1.1.1.1.2s.1.1.1.2l.1.1c0 .1.1.1.2.1l.1.1.2.1c.1.1.2.1.3.1.1 0 .2.1.3.1h.3-.1.3c.1 0 .2 0 .3-.1.1 0 .2-.1.3-.1l.2-.1.1-.1c.1-.1.1-.1.2-.2 0 0 .1 0 .1-.1.1-.1.1-.1.1-.2.1-.1.1-.1.1-.2.1-.1.2-.2.3-.4s.2-.3.3-.4.2-.2.4-.4c.1-.1.2-.2.4-.3.2-.2.5-.3.7-.4.3-.1.7-.2 1.1-.2h.3c.3 0 .5 0 .8.1s.5.1.7.2.5.2.7.4l.4.3.2.3.3.3c.1.1.2.3.3.4s.1.2.2.4c.1.1.1.3.2.4 0 .1 0 .2.1.3l.1.2c.1.1.1.3.1.4-.1.2 0 .6 0 .9z" fill="#610ac3" opacity=".2"/><path d="m26.1 7.4c-1.3-1.4-3-2.1-4.9-2.1-1.4 0-2.8.5-3.9 1.3-.5.4-.9.9-1.3 1.4-.4-.5-.8-.9-1.3-1.3-1.1-.9-2.4-1.3-3.8-1.3-1.9-.1-3.7.7-4.9 2.1-1.3 1.4-2 3.2-2 5.1.1 2.2.9 4.3 2.4 5.9 1.8 2 3.8 3.8 5.8 5.5l.3.2 2.4 2.1c.3.3.7.4 1.1.4s.8-.1 1.1-.4l2.4-2.1.3-.2c2.1-1.7 4.1-3.5 5.9-5.5 1.5-1.6 2.3-3.7 2.4-5.9v-.1c-.1-1.9-.8-3.7-2-5.1zm-7.6 15.1-.1.1c-.7.6-1.5 1.3-2.4 2-.9-.8-1.8-1.5-2.5-2.1-1.9-1.5-3.7-3.2-5.3-5h3.9c.4 0 .7-.2.9-.5l1-2.7 2.6 6.5c.2.5.8.7 1.3.4.2-.1.4-.3.4-.4l1.6-4.6h2.5c.5-.2.8-.7.7-1.3-.1-.3-.3-.6-.7-.7h-3.2c-.4 0-.8.3-.9.7l-1 2.8-2.5-6.4c-.2-.5-.7-.7-1.2-.5-.3.1-.5.3-.6.6l-1.6 4.5h-4.7c-.5-.9-.8-2-.8-3.1 0-1.4.5-2.8 1.4-3.9.9-1 2.1-1.6 3.5-1.6h.1c1 0 1.9.3 2.7.9.6.5 1.1 1.1 1.5 1.8.2.3.4.4.7.5s.6 0 .9-.1c.2-.1.3-.2.5-.4.4-.7.9-1.3 1.5-1.8.8-.6 1.7-.9 2.7-.9h.1c1.3 0 2.6.6 3.4 1.5 1 1.1 1.5 2.5 1.4 3.9-.1 1.7-.7 3.4-1.9 4.7-2 1.8-3.9 3.5-5.9 5.1z" fill="#6c429c"/></svg>