<svg viewBox="0 0 32 32" xmlns="http://www.w3.org/2000/svg"><path d="m0 0h32v32h-32z" fill="none"/><path d="m9.27 22.84v2.46a1.84 1.84 0 0 0 1.84 1.84h10.44a1.84 1.84 0 0 0 1.84-1.84v-2.46z" fill="#610ac3" opacity=".2"/><g fill="#6c429c"><path d="m18.28 25a.85.85 0 0 1 -.86.86h-2.13a.86.86 0 0 1 -.86-.86.88.88 0 0 1 .86-.87h2.13a.87.87 0 0 1 .86.87z"/><path d="m21.54 4h-10.42a2.72 2.72 0 0 0 -2.71 2.7v18.6a2.7 2.7 0 0 0 2.71 2.7h10.42a2.7 2.7 0 0 0 2.71-2.69v-18.61a2.72 2.72 0 0 0 -2.71-2.7zm1 21.31a1 1 0 0 1 -1 1h-10.42a1 1 0 0 1 -1-1v-1.62h12.4zm0-3.33h-12.4v-15.28a1 1 0 0 1 1-1h10.4a1 1 0 0 1 1 1z"/></g></svg>