<svg enable-background="new 0 0 32 32" viewBox="0 0 32 32" xmlns="http://www.w3.org/2000/svg"><path d="m0 0h32v32h-32z" fill="none"/><g fill="#6c429c"><path d="m24.4 22.3c-.1-.6-.5-1.1-1.1-1.3-.1-.1-.3-.1-.4-.1-.3-.1-.7 0-1 .1-.1 0-.1.1-.2.1-.5.4-.7.9-.7 1.5 0 .7.4 1.4 1 1.7.1 0 .2.1.3.1h.3c.7 0 1.4-.5 1.6-1.2 0-.1 0-.2.1-.2.1-.3.1-.5.1-.7zm-1.7.9h-.1-.1c-.1 0-.1-.1-.2-.1 0 0-.1-.1-.1-.1s-.1-.1-.1-.1c0-.1 0-.1 0-.2s0-.1 0-.2v-.1s0-.1.1-.1c.1-.1.2-.1.3-.1h.2.2c.2.1.4.3.4.5v.2c-.2.3-.4.4-.6.3z"/><path d="m22.7 20.9c.1 0 .1 0 .2.1-.3-.1-.7 0-1 .1.2-.1.5-.2.8-.2z"/><path d="m24.5 22.5v.2.3c.1-.2.1-.5 0-.7z"/><path d="m26.7 9.2h-9l4-3.9c.2-.1.3-.4.3-.6 0-.3-.1-.5-.3-.7-.4-.3-.9-.3-1.3 0l-5 4.8-3.6-3.5c-.4-.3-.9-.3-1.3 0s-.4.9 0 1.3l2.8 2.7h-8c-.5 0-.8.4-.8.9v16.2c0 .5.4.9.8.9h1v.2c.1.4.4.7.8.7h.1c.4 0 .8-.4.8-.8v-.2h15.6v.1c0 .5.4.9.9.9.5 0 .9-.4.9-.9v-.2h1.2c.2 0 .5-.1.7-.3s.3-.4.3-.6v-16.1c-.1-.5-.4-.9-.9-.9zm-1 16.3h-1.7-17.9v-14.5h9.7c.1 0 .3 0 .4-.1l9.5.1z"/><path d="m22 24.3c-.9-.3-1.3-1.3-1-2.2.1-.4.4-.7.7-.8-.4.3-.7.9-.7 1.4 0 .6.4 1.3 1 1.6z"/><path d="m22 24.3c.1 0 .2.1.3.1h-.1s-.1-.1-.2-.1z"/></g><path d="m22.5 13.1c.8 0 1.5.7 1.5 1.5v3c0 .8-.7 1.5-1.5 1.5-.8 0-1.5-.7-1.5-1.5v-3c0-.8.7-1.5 1.5-1.5z" fill="#610ac3" opacity=".2"/><path d="m9.5 13.4h7c1.1 0 2 .9 2 2v6c0 1.1-.9 2-2 2h-7c-1.1 0-2-.9-2-2v-6c0-1.1.9-2 2-2z" fill="#610ac3" opacity=".2"/></svg>