<svg enable-background="new 0 0 32 32" viewBox="0 0 32 32" xmlns="http://www.w3.org/2000/svg"><path d="m0 0h32v32h-32z" fill="none"/><path d="m11.08786 27.31485-4.72913-1.67362 2.93309-10.19532 7.10077 2.513-2.23597 6.25807-1.38523 2.5153z" fill="#610ac3" opacity=".2"/><path d="m17.86553 15.42499-8.24006-2.92999c-.33997-.12-.72998.02002-.90997.34003l-.67999 1.19995c-.10999.19-.14001.44-.06.63.06.17999.19.34003.35999.42004l-2.91999 10.20996c-.12.39001.09998.81.46997.92004l4.64001 1.64996c.01001.40002.16003.78003.41998 1.09003.29004.34998.72003.56 1.21002.60999h.12c.73999 0 1.40002-.47003 1.65002-1.16003.20996-.59998.07996-1.25-.33002-1.71997l3.62-8.44c.16998.03998.33002.01001.48999-.06.16998-.09003.29999-.23999.38-.45001l.26001-1.46997c.06001-.37-.14-.71003-.47996-.84003zm-5.13001 12.54999c-.04999.13-.14001.22003-.25.28003-.07001.02997-.14001.03998-.20001.03998s-.10999-.01001-.16998-.02997c-.11005-.04004-.21002-.13-.26001-.25-.06-.09003-.07001-.22003-.03003-.35004.04004-.12.13-.21997.26001-.27997.08002-.04999.26001-.04999.35004-.02002.24999.09003.37994.35999.29998.60999zm-.51001-1.90998c-.39001.01001-.76001.15002-1.07001.40002l-4.08002-1.45001 2.73005-9.02001 5.73999 2.03998z" fill="#6c429c"/><path d="m9.18524 19.61542.21529.34083-.47497.43457c-.23004.19679-.07794.52484.04534.66473.16291.14455.3569.24963.56698.30709l.62778-.50001.2411.26993-.1684-1.14396zm-.4349 1.32818.20982 1.41244c.10726.21861.30928.3756.54758.42563l.67424.24547.40912-1.12375-1.2743-.47411c-.25355-.06601-.46254-.24519-.56646-.48568zm4.80925-.71194-.40043.02166-.14999-.62591c-.06045-.29692-.42131-.32193-.60294-.28286-.20725.0719-.39465.19166-.54696.34953l.13267.79157-.35088.07816 1.08208.40866zm-.95052-1.02483-1.33641-.50239c-.24304-.01046-.47752.09088-.63639.27513l-.5412.47043.78082.89742 1.03108-.88375c.18132-.18957.44066-.2838.70137-.25482zm-1.59926 4.57306.1767-.36104.61643.17126c.28905.09167.4867-.21197.53937-.39079.03802-.21616.0243-.43828-.04007-.64811l-.75708-.26658.10195-.34527-.88106.74831zm1.35673-.33644 1.08702-.9256c.1273-.20713.15224-.4613.06767-.68922l-.14959-.70155-1.16224.2466.2772 1.33292c.07615.25171.03156.52448-.12078.73886z" fill="#6c429c"/><path d="m24.93553 17.57501c-.03003.09998-.07001.19-.11005.27997-.01001 0-.01001.01001-.01001.01001-.16998.32001-.45996.54999-.81.59003-.44995.06-.87-.20001-1.08997-.62-.04004-.06-.07001-.12-.09003-.19-.03998-.10004-.07001-.22003-.07996-.33002l-.52002-4.71002-.12-1.15997.58002-.41998c.32996-.23004.51996-.59003.51996-.90002 0-.13-.02997-.25-.09998-.34998-.16996-.27003-.54001-.34003-.9-.21003.04004-.07001.09003-.13.14001-.19.04999-.04999.09998-.09998.15002-.13.13995-.10999.29999-.17999.46997-.20001.03998-.01001.09003-.01001.13-.01001.14001 0 .27002.03003.40002.09003.12.06.23999.14001.33997.23999.04999.04999.10004.10004.14001.16003.13.17999.21997.39996.25.63995v.02002l.75 6.84003c.02004.19.00002.37994-.03996.54998z" fill="#610ac3" opacity=".2"/><path d="m23.84551 18.84497.45001.17004c-.13001-.11004-.29004-.16003-.45001-.17004z" fill="#5c2d91"/><path d="m26.06548 18.92499c.43005-.58997.62006-1.32001.53003-2.08002l-.75-6.83997c-.09998-.91003-.59998-1.71002-1.33002-2.17999.67999-.58001 1.07001-1.42004 1.07001-2.32001 0-1.69-1.37-3.07001-3.06-3.07001s-3.07001 1.38-3.07001 3.07001c0 1.19.66998 2.23999 1.71002 2.73999-.22003.23999-.41003.52002-.54004.82001l-4.00995 2.88c-1.02002.73999-1.35004 2.03998-.75 2.96997.35999.55005.94995.86005 1.63001.86005.5 0 .98999-.17004 1.44-.49005l1.79999-1.29999.38995 3.51001c.06006.52002.24005 1 .52002 1.39001-.14996.35999-.22998.76996-.21997 1.17999l.08997 6.53998c.02002 1.48999 1.08002 2.67999 2.42004 2.73004h.06995c.61005 0 1.19-.25 1.63-.70001.5-.51001.78003-1.23999.77002-2l-.09998-6.56c-.01-.40001-.09002-.78002-.24004-1.15001zm-3.53998-14.85999c.78998 0 1.42999.65002 1.42999 1.44s-.64001 1.43-1.42999 1.43-1.44-.64001-1.44-1.42999.65002-1.44001 1.44-1.44001zm-4.47998 9.98999c-.32001.23999-.75.27002-.90002.03998-.15997-.25.01001-.65997.37-.91998l4.48999-3.22998c.08002-.06.18005-.10999.28003-.14001.08001-.02998.17998-.05.26-.05.15997 0 .28998.04999.34998.14996.16003.25-.01001.67004-.35999.92004zm6.34997 13.35999c-.08002.08002-.20996.17999-.39001.17999v.25l-.01996-.25c-.39001-.01996-.72003-.47998-.73004-1.00995l-.08997-6.54004c0-.14001.01001-.22998.04999-.34998 0-.04004.01001-.08002.03998-.14001.01001-.02002.03003-.06.04004-.08002l.04999-.08997.10999-.10999.03003-.05005c.01996-.01996.03998-.02997.06-.03998l.09998-.04999c.04999-.03003.10999-.04004.17999-.04004.13.01001.23004.05005.31.11005l.27.29c0 .01001.01001.02002.04999.10999l.03003.07001c0 .01001.01001.03003.01996.07001.04004.13.06.25.06.35999l.10004 6.54999c-.00001.30003-.10004.59001-.27003.75999zm.29999-9.90998c0 .01001 0 .02002-.00995.02002-.25-.10004-.51001-.16003-.79004-.17004h-.07001c-.26996 0-.52997.04999-.78998.15002-.02002-.07001-.03998-.15002-.03998-.22003l-.51001-4.56.94-.66998c.26996-.20001.5-.44.67999-.71002l.62 5.71002c.02003.14002.01002.29999-.03002.45001z" fill="#6c429c"/></svg>