<svg enable-background="new 0 0 32 32" viewBox="0 0 32 32" xmlns="http://www.w3.org/2000/svg"><path d="m0 0h32v32h-32z" fill="none"/><path d="m27.8 8.5-.1-.3c-.3-.6-.8-1-1.4-1.3-1.4-.3-2.8-.1-4 .6l-5.6 3.1-5.4-3c-.2-.1-.5-.1-.7 0l-2.6 1.3c-.4.1-.6.6-.4 1 .1.1.1.2.2.3l4 3-3.1 1.8-1.8-1c-.2-.1-.5-.1-.7 0l-1.7.8c-.2.1-.4.2-.5.4v.7c.1.1.1.2.2.3l3.6 2.7c.4.3.9.5 1.3.5.3 0 .7-.1 1-.2l16.5-7.9c.5-.2.9-.6 1.1-1.1.4-.5.4-1.2.1-1.7zm-16.4 8.3-1.8.9c-.2.1-.5.1-.7-.1l-2.5-1.9h.1l1.8 1c.2.1.5.1.8 0l4.2-2.3.9.7c.2.2.6.2.8.1l1.7-.8zm4.6-3.7-.3.2-.3.1-.4.2-.3.2-5.3-4 1.4-.8 6.4 3.5zm10.1-3.3-7.1 3.4c.3-.2.4-.7.2-1-.1-.2-.2-.3-.4-.4l-.5-.3 4.7-2.5c.4-.2.8-.4 1.2-.5l-.3.2c-.2.1-.4.2-.5.4s-.1.4 0 .6.2.4.4.4c.2.1.4.1.6 0l.1-.1 1.8-.9c.2.4 0 .6-.2.7z" fill="#6c429c"/><path d="m17.2 12.5-1.2.6-.3.2-.3.1-.3.2-.4.1-5.3-4 1.4-.7z" fill="#610ac3" opacity=".2"/><g fill="#6c429c"><path d="m22.3 22.1c0 .5-.4.9-.8.9h-15.8c-.5 0-.9-.4-.9-.9s.4-.9.9-.9h15.8c.4 0 .8.4.8.9z"/><path d="m26.4 22.1c0 .5-.4.9-.9.9h-1.7c-.5 0-.9-.4-.9-.9s.4-.9.9-.9h1.7c.5 0 .9.4.9.9z"/><path d="m16.8 24.4c0 .5-.4.9-.8.9h-7.8c-.5.1-.9-.3-.9-.8-.1-.5.3-.9.7-1h.2 7.7c.5 0 .9.4.9.9z"/><path d="m8.4 11.3c0 .3-.1.5-.4.6l-2.9 1.6h-.1c-.1 0-.2.1-.3.1-.4 0-.7-.3-.7-.7 0-.3.2-.5.4-.7l2.9-1.6c.4-.2.8-.1 1 .3.1.1.1.3.1.4z"/></g></svg>