<svg viewBox="0 0 32 32" xmlns="http://www.w3.org/2000/svg"><path d="m0 0h32v32h-32z" fill="none"/><path d="m22.93 16.48v.52h-2.44l-4-2.79a.92.92 0 0 0 -1.13 0l-3.94 2.79h-2.42v-.52a.56.56 0 0 1 .5-.48h1.83a.53.53 0 0 0 .53-.53.52.52 0 0 0 -.53-.52h-.43a5 5 0 0 1 4.15-4.41v-5.49a.52.52 0 0 1 .52-.52.52.52 0 0 1 .53.52v.7l2.79 1c.17.09.26.17.17.35l-.17.17-2 .7 2 .7c.17.08.26.17.17.35a.18.18 0 0 1 -.17.17l-2.79 1v.15a5 5 0 0 1 4.74 4.47h-.43a.52.52 0 0 0 -.53.52.53.53 0 0 0 .53.53h2a.56.56 0 0 1 .52.62z" fill="#6c429c"/><path d="m30.25 26.92a.82.82 0 0 1 -.76.76h-27a.78.78 0 0 1 0-1.55h8.51v-4.13a.61.61 0 0 1 .48-.58.62.62 0 0 1 .52.58v4.13h3.34v-5.13a.64.64 0 0 1 .48-.58.62.62 0 0 1 .58.58v5.21h3.44v-4.21a.61.61 0 0 1 .48-.58.62.62 0 0 1 .58.58v4.14h8.49a1 1 0 0 1 .82.69z" fill="#6c429c"/><path d="m23.46 25.46v-5a.72.72 0 0 0 -.18-.44l-7.28-5.02-7.28 5.06c-.18.09-.18.26-.18.43v5h1.46v-4a1.48 1.48 0 1 1 3-.07v.07 4h1.48v-5a1.49 1.49 0 0 1 3 0v5h1.48v-4a1.49 1.49 0 0 1 3 0v4z" fill="#dfcef2"/><g fill="#6c429c"><path d="m9.94 18-1.83 1.27a1.33 1.33 0 0 0 -.62 1.22v5h-1.22v-4.49a.68.68 0 0 0 -.67-.7h-.2a.75.75 0 0 0 -.7.7v4.44h-1.7a.56.56 0 0 1 -.52-.52v-6.43a.56.56 0 0 1 .52-.49z"/><path d="m29.39 18.49v6.45a.56.56 0 0 1 -.52.52h-1.75v-4.46a.69.69 0 0 0 -.68-.7h-.19a.74.74 0 0 0 -.7.7v4.44h-1.22v-5a1.54 1.54 0 0 0 -.61-1.22l-1.83-1.22h7a.51.51 0 0 1 .52.48z"/></g></svg>