<svg viewBox="0 0 32 32" xmlns="http://www.w3.org/2000/svg"><path d="m0 0h32v32h-32z" fill="none"/><g fill="#610ac3"><path d="m18.68 22h-5.36v-1.6a2.68 2.68 0 0 1 2.68-2.68 2.68 2.68 0 0 1 2.68 2.68z" opacity=".2"/><circle cx="16" cy="7.51" opacity=".2" r="2.68"/><path d="m14.26 22.67h3.47v4.49h-3.47z" opacity=".2"/></g><path d="m21.1 8.66a.91.91 0 0 0 0 1.82h1.7a.91.91 0 0 0 .9-.92v-.56h1a.91.91 0 0 0 .87-.94.92.92 0 0 0 -.88-.88h-1v-.57a.9.9 0 0 0 -.9-.9h-3.58a3.87 3.87 0 0 0 -5.29-1.11 3.77 3.77 0 0 0 -1.14 1.11h-3.58a.9.9 0 0 0 -.9.9v.57h-1a.92.92 0 0 0 -.94.88.9.9 0 0 0 .24.64.88.88 0 0 0 .6.3h1.1v.57a.91.91 0 0 0 .9.92h1.68a.91.91 0 0 0 .12-1.83h-.9v-1.15h2a3.85 3.85 0 0 0 .55 2.41 7.83 7.83 0 0 0 -3.52 6.53v7h-1.6a.89.89 0 0 0 -.63.29.86.86 0 0 0 -.24.65.92.92 0 0 0 .88.87h5.62v1.8a.9.9 0 0 0 .9.9h3.88a.9.9 0 0 0 .9-.9v-1.76h5.63a.92.92 0 0 0 .63-.3.84.84 0 0 0 .23-.65.91.91 0 0 0 -.87-.87h-1.62v-7a7.71 7.71 0 0 0 -1.34-4.37.94.94 0 0 0 -.56-.41.93.93 0 0 0 -1.09.68.91.91 0 0 0 .15.62v.06a6 6 0 0 1 1 3.37v7h-2.16v-.43h.16a.9.9 0 0 0 .9-.9v-1.77a3.91 3.91 0 0 0 -3.9-3.9 3.9 3.9 0 0 0 -3.9 3.9v1.75a.9.9 0 0 0 .9.92h.15v.5h-2.15v-7a6.09 6.09 0 0 1 2.92-5.17h.09a3.9 3.9 0 0 0 5.89-3.72h2v1.05zm-4.1 17.53h-2v-3.19h2zm-3.12-5.86a2.09 2.09 0 0 1 4.18 0v.85h-4.15zm2.12-10.33a2.1 2.1 0 1 1 2.09-2.1 2.09 2.09 0 0 1 -2.09 2.1z" fill="#6c429c"/><path d="m21.05 8.66a.9.9 0 0 0 -.62.3.85.85 0 0 0 -.25.64.89.89 0 0 0 .93.88h1.69a.91.91 0 0 0 .9-.92v-.56h1.09a.89.89 0 0 0 .63-.29.9.9 0 0 0 .24-.64.91.91 0 0 0 -.89-.88h-1.07v-.58a.9.9 0 0 0 -.9-.9h-3.58a3.77 3.77 0 0 0 -1.14-1.11 3.9 3.9 0 0 0 -5.3 1.11h-3.58a.9.9 0 0 0 -.9.9v.57h-1a.92.92 0 0 0 -.87.88.91.91 0 0 0 .84.94h1v.56a.91.91 0 0 0 .9.92h1.83a.91.91 0 0 0 .86-.94.89.89 0 0 0 -.29-.63.87.87 0 0 0 -.64-.25h-.83v-1.15h2a3.91 3.91 0 0 0 5.9 3.72h.09a6.08 6.08 0 0 1 2.91 5.22v7h-2.16v-.45h.16a.9.9 0 0 0 .9-.91v-1.76a3.89 3.89 0 0 0 -3.9-3.89 3.91 3.91 0 0 0 -3.9 3.89v1.75a.9.9 0 0 0 .9.9h.15v.51h-2.15v-7a6 6 0 0 1 1-3.36v-.13a.86.86 0 0 0 .11-.68.9.9 0 0 0 -1.64-.28 7.69 7.69 0 0 0 -1.34 4.38v7h-1.6a.91.91 0 0 0 -.87.87.89.89 0 0 0 .24.71.92.92 0 0 0 .64.3h5.62v1.8a.9.9 0 0 0 .9.9h3.88a.9.9 0 0 0 .9-.9v-1.8h5.68a.89.89 0 0 0 .86-.94.88.88 0 0 0 -.28-.63.89.89 0 0 0 -.65-.24h-1.62v-7a7.82 7.82 0 0 0 -3.51-6.53 3.85 3.85 0 0 0 .55-2.41h2v1.11zm-5.05 1.34a2.1 2.1 0 1 1 2.09-2.1 2.09 2.09 0 0 1 -2.09 2.1zm0 8.25a2.08 2.08 0 0 1 2.09 2.09v.85h-4.18v-.85a2.1 2.1 0 0 1 2.09-2.1zm1 8h-2v-3.25h2z" fill="#6c429c"/></svg>